<svg width="43" height="40" viewBox="0 0 43 40" fill="none" xmlns="http://www.w3.org/2000/svg">
<path d="M6.41067 38.8659C6.36691 38.9023 6.31942 38.9341 6.26902 38.9608C6.16183 39.02 6.04919 39.0689 5.9326 39.1066C5.79117 39.1544 5.64279 39.1784 5.4935 39.1775C4.76685 39.1775 4.41344 38.6747 4.41344 37.6406V32.2636L6.39154 32.112V31.6594H4.41059V29.9951L2.73633 30.4129V31.6594H1.65625V32.1057L2.73633 32.2579V37.6703C2.73633 38.4211 2.94879 38.9785 3.36452 39.3262C3.78027 39.6739 4.33411 39.8468 5.01897 39.8468C5.6427 39.8586 6.24782 39.6341 6.71308 39.2186L6.76762 39.1704L6.47087 38.805L6.41067 38.8659Z" fill="#28455E"/>
<path d="M12.9608 31.8338C12.6461 31.6255 12.2757 31.5177 11.8985 31.5242C11.1329 31.5242 10.4324 31.9144 9.81414 32.6844V31.6594H7.07324V32.1056L8.13559 32.2579V39.096L7.07324 39.2477V39.6945H11.0302V39.2468L9.8127 39.096V33.4953C10.0225 33.1721 10.2692 32.8745 10.5479 32.6085C10.7554 32.4236 10.9586 32.3301 11.152 32.3301C11.3026 32.3223 11.4503 32.3731 11.5642 32.4719C11.6143 32.5176 11.6538 32.5738 11.6798 32.6363C11.7059 32.6991 11.7179 32.7667 11.715 32.8345C11.7136 32.9844 11.66 33.1291 11.5635 33.2439L11.5266 33.2913L11.5642 33.338C11.6637 33.4682 11.7925 33.5733 11.9402 33.6442C12.0879 33.7154 12.2502 33.7508 12.4141 33.7474C12.5483 33.7535 12.6824 33.732 12.8078 33.684C12.9333 33.6358 13.0475 33.5623 13.1432 33.468C13.2389 33.3738 13.3141 33.2607 13.364 33.1359C13.4139 33.0112 13.4375 32.8775 13.4332 32.7431C13.4403 32.5635 13.4004 32.3853 13.3176 32.2257C13.2348 32.0663 13.1118 31.9313 12.9608 31.8338Z" fill="#28455E"/>
<path d="M21.7425 38.6308C21.7518 38.7854 21.7044 38.9379 21.6094 39.06C21.5654 39.1099 21.5107 39.1493 21.4494 39.175C21.3881 39.2007 21.3218 39.2123 21.2552 39.2089C21.1881 39.214 21.1205 39.2032 21.058 39.1775C20.9956 39.152 20.9399 39.1122 20.8955 39.0615C20.8112 38.9596 20.768 38.8044 20.768 38.6005V34.2484C20.768 32.4409 19.7184 31.5244 17.6518 31.5244C16.7587 31.5244 16.003 31.7072 15.4059 32.0677C14.7954 32.4359 14.4852 32.9339 14.4852 33.5478C14.4852 33.8936 14.5801 34.1555 14.7685 34.327C14.9719 34.5034 15.2353 34.5953 15.5044 34.5833C15.6422 34.5843 15.7788 34.5571 15.9058 34.5037C16.0328 34.45 16.1476 34.3712 16.2431 34.2718C16.3415 34.1785 16.4198 34.0663 16.4734 33.9418C16.527 33.8173 16.5546 33.6834 16.5547 33.5478V33.4926L16.5016 33.4755C16.2509 33.3949 16.1283 33.2298 16.1283 32.9699C16.123 32.837 16.1494 32.7048 16.2053 32.5841C16.2613 32.4634 16.3451 32.3577 16.4499 32.2758C16.6687 32.1002 17.0108 32.0109 17.4676 32.0109C17.8699 32.0109 18.1914 32.0677 18.4237 32.1789C18.6584 32.2952 18.8385 32.4984 18.9259 32.7454C19.0385 33.0245 19.0958 33.4267 19.0958 33.9416V35.0373H18.1511C17.0887 35.0373 16.1404 35.242 15.3323 35.6463C14.5065 36.0593 14.0879 36.7654 14.0879 37.7455C14.0879 38.4369 14.3074 38.9659 14.7395 39.3193C15.1715 39.6726 15.7211 39.8462 16.3854 39.8462C16.9839 39.8516 17.5729 39.6956 18.0901 39.3944C18.5116 39.1523 18.8636 38.8056 19.1121 38.388C19.1653 38.8421 19.3338 39.1912 19.6157 39.4283C19.9607 39.7135 20.3971 39.8645 20.8445 39.8533C21.2693 39.8533 21.6044 39.7442 21.8459 39.5296C22.0875 39.315 22.2134 39.012 22.2134 38.6359V38.5594H21.7425V38.6308ZM18.7425 38.1096C18.5648 38.391 18.3218 38.6251 18.0342 38.7924C17.7897 38.9385 17.5116 39.0189 17.2268 39.0261C16.7409 39.0261 16.3691 38.9149 16.1205 38.6953C15.8719 38.4758 15.7508 38.0982 15.7508 37.5621C15.7508 36.9183 15.9499 36.412 16.3422 36.0587C16.7346 35.7051 17.3465 35.5225 18.1553 35.5225H19.0987V37.0225C19.0711 37.4088 18.9485 37.7821 18.7417 38.1096H18.7425Z" fill="#28455E"/>
<path d="M27.1281 32.1145L28.4434 32.4883L26.4864 37.7506L24.2967 32.298L25.3633 32.1053V31.6611H21.4219V32.1067L22.4331 32.2624L25.6933 39.9999H26.2223L29.0291 32.4805L30.0043 32.1095V31.6767H27.1281V32.1145Z" fill="#28455E"/>
<path d="M37.4783 35.009V34.9317C37.4787 34.3153 37.3235 33.7086 37.0272 33.1682C36.7416 32.6604 36.3207 32.242 35.811 31.9598C35.2727 31.6654 34.6675 31.5155 34.0538 31.5243C33.3454 31.5161 32.6473 31.6955 32.0305 32.0442C31.4263 32.3905 30.9274 32.8938 30.5865 33.5009C30.2322 34.1236 30.0518 34.8552 30.0518 35.6761C30.0518 36.4968 30.2343 37.2341 30.5942 37.8595C30.9415 38.4749 31.4516 38.9824 32.0688 39.3263C32.7042 39.6759 33.4193 39.8551 34.1446 39.846C34.9901 39.846 35.7175 39.6152 36.3067 39.1606C36.8951 38.7082 37.2911 38.0507 37.4153 37.3191L37.4322 37.2284H36.928L36.916 37.2901C36.8006 37.8913 36.4567 38.4245 35.9563 38.7775C35.4313 39.1622 34.7953 39.3653 34.1446 39.356C33.413 39.356 32.8478 39.0877 32.4639 38.5578C32.08 38.028 31.8776 37.3071 31.8776 36.4332V35.0024L37.4783 35.009ZM32.5157 32.6971C32.8741 32.2418 33.3861 32.011 34.0383 32.011C34.5936 32.011 34.991 32.2112 35.2523 32.6227C35.5137 33.0342 35.6432 33.6504 35.651 34.4762H31.8974C31.9568 33.7418 32.1644 33.1469 32.5157 32.6971Z" fill="#28455E"/>
<path d="M41.0535 39.0961V27.3691H38.2383V27.816L39.3793 27.9683V39.0961L38.2383 39.2478V39.6953H42.1186V39.2484L41.0535 39.0961Z" fill="#28455E"/>
<path d="M35.5791 0.000976562V2.73762H38.3157V24.6328H41.0532V0.000976562H35.5791Z" fill="#28455E"/>
<path d="M26.7622 14.8261C28.1557 13.8008 29.1895 12.3616 29.7166 10.7139C30.2435 9.06624 30.2367 7.29418 29.6972 5.65055C29.1577 4.00695 28.1127 2.5757 26.7117 1.561C25.3106 0.546311 23.6248 0 21.8948 0C20.1649 0 18.4792 0.546311 17.0781 1.561C15.677 2.5757 14.6322 4.00695 14.0926 5.65055C13.553 7.29418 13.5462 9.06624 14.0732 10.7139C14.6003 12.3616 15.6342 13.8008 17.0275 14.8261C15.201 15.7327 13.6641 17.1313 12.5898 18.8644C11.5155 20.5975 10.9467 22.5963 10.9473 24.6352H13.6846C13.6745 23.5507 13.8795 22.4748 14.2875 21.4698C14.6957 20.4649 15.2988 19.5508 16.0622 18.7802C16.8256 18.0097 17.7341 17.3981 18.7352 16.9807C19.7363 16.5633 20.8102 16.3484 21.8948 16.3484C22.9795 16.3484 24.0534 16.5633 25.0545 16.9807C26.0557 17.3981 26.9642 18.0097 27.7275 18.7802C28.4909 19.5508 29.0941 20.4649 29.5022 21.4698C29.9103 22.4748 30.1152 23.5507 30.1051 24.6352H32.8426C32.8434 22.5961 32.2746 20.5973 31.2004 18.8641C30.126 17.131 28.5889 15.7324 26.7622 14.8261ZM21.8946 13.6859C20.8119 13.6859 19.7535 13.3648 18.8533 12.7633C17.9532 12.1619 17.2515 11.3069 16.8372 10.3067C16.4229 9.30644 16.3145 8.20581 16.5257 7.14396C16.7369 6.08212 17.2583 5.10674 18.0238 4.3412C18.7894 3.57563 19.7648 3.05429 20.8266 2.84309C21.8885 2.63187 22.989 2.74028 23.9893 3.15458C24.9896 3.56889 25.8444 4.2705 26.4459 5.1707C27.0475 6.07089 27.3685 7.12924 27.3685 8.21189C27.3687 8.93077 27.2272 9.64263 26.9519 10.3068C26.6769 10.971 26.2738 11.5745 25.7655 12.0828C25.2571 12.5911 24.6535 12.9943 23.9895 13.2694C23.3253 13.5445 22.6133 13.686 21.8946 13.6859Z" fill="#28455E"/>
<path d="M0 0.00195312V2.73859H2.73664V24.6338H5.47399V0.00195312H0Z" fill="#28455E"/>
</svg>
