<svg width="34" height="32" viewBox="0 0 34 32" fill="none" xmlns="http://www.w3.org/2000/svg">
<path d="M5.12777 31.0929C5.09276 31.1221 5.05477 31.1475 5.01446 31.1689C4.9287 31.2162 4.83859 31.2553 4.74532 31.2855C4.63217 31.3237 4.51347 31.3429 4.39403 31.3423C3.81271 31.3423 3.52998 30.9399 3.52998 30.1127V25.8111L5.11248 25.6898V25.3277H3.52771V23.9963L2.18828 24.3305V25.3277H1.32422V25.6847L2.18828 25.8065V30.1365C2.18828 30.7371 2.35826 31.1831 2.69084 31.4612C3.02345 31.7394 3.46652 31.8777 4.01441 31.8777C4.5134 31.8871 4.99749 31.7075 5.3697 31.3751L5.41334 31.3365L5.17594 31.0442L5.12777 31.0929Z" fill="white"/>
<path d="M10.3703 25.4672C10.1185 25.3006 9.82218 25.2144 9.52037 25.2196C8.90787 25.2196 8.34751 25.5318 7.85288 26.1477V25.3277H5.66016V25.6847L6.51004 25.8065V31.2771L5.66016 31.3984V31.7559H8.82572V31.3977L7.85174 31.2771V26.7965C8.01959 26.5379 8.21696 26.2998 8.43986 26.0871C8.60588 25.9391 8.76849 25.8643 8.92318 25.8643C9.04362 25.8581 9.16183 25.8987 9.25294 25.9777C9.29302 26.0143 9.32459 26.0593 9.34543 26.1093C9.36629 26.1595 9.37591 26.2136 9.37362 26.2678C9.37247 26.3878 9.32961 26.5035 9.25237 26.5953L9.2229 26.6333L9.25294 26.6707C9.33254 26.7748 9.4356 26.8588 9.55373 26.9156C9.67187 26.9726 9.80176 27.0009 9.93285 26.9982C10.0402 27.0031 10.1475 26.9859 10.2479 26.9475C10.3482 26.9089 10.4396 26.8501 10.5162 26.7746C10.5927 26.6993 10.6529 26.6088 10.6928 26.5089C10.7327 26.4092 10.7516 26.3022 10.7482 26.1947C10.7538 26.051 10.7219 25.9085 10.6557 25.7808C10.5894 25.6532 10.491 25.5452 10.3703 25.4672Z" fill="white"/>
<path d="M17.3933 30.9048C17.4007 31.0284 17.3628 31.1504 17.2868 31.2481C17.2516 31.288 17.2078 31.3196 17.1588 31.3401C17.1097 31.3607 17.0567 31.3699 17.0034 31.3672C16.9497 31.3713 16.8956 31.3627 16.8457 31.3421C16.7957 31.3217 16.7512 31.2899 16.7156 31.2493C16.6482 31.1678 16.6137 31.0436 16.6137 30.8805V27.3988C16.6137 25.9528 15.774 25.2196 14.1206 25.2196C13.4062 25.2196 12.8016 25.3658 12.324 25.6543C11.8356 25.9488 11.5874 26.3472 11.5874 26.8383C11.5874 27.1149 11.6633 27.3245 11.814 27.4617C11.9768 27.6028 12.1875 27.6763 12.4027 27.6667C12.513 27.6675 12.6223 27.6458 12.7239 27.603C12.8255 27.56 12.9173 27.497 12.9937 27.4175C13.0724 27.3429 13.1351 27.2531 13.178 27.1535C13.2208 27.054 13.2429 26.9468 13.243 26.8383V26.7942L13.2005 26.7805C12.9999 26.716 12.9019 26.5839 12.9019 26.376C12.8977 26.2697 12.9188 26.1639 12.9635 26.0674C13.0082 25.9708 13.0753 25.8863 13.1591 25.8207C13.3342 25.6802 13.6079 25.6088 13.9733 25.6088C14.2951 25.6088 14.5524 25.6543 14.7382 25.7432C14.926 25.8362 15.0701 25.9988 15.1399 26.1964C15.23 26.4196 15.2759 26.7414 15.2759 27.1534V28.0299H14.5201C13.6702 28.0299 12.9115 28.1937 12.265 28.5172C11.6044 28.8475 11.2695 29.4124 11.2695 30.1965C11.2695 30.7496 11.4452 31.1728 11.7908 31.4555C12.1364 31.7382 12.5761 31.877 13.1076 31.877C13.5864 31.8814 14.0575 31.7566 14.4714 31.5157C14.8085 31.3219 15.0901 31.0446 15.289 30.7105C15.3314 31.0737 15.4663 31.3531 15.6918 31.5428C15.9678 31.7709 16.3169 31.8917 16.6748 31.8828C17.0147 31.8828 17.2828 31.7955 17.476 31.6238C17.6692 31.4521 17.77 31.2097 17.77 30.9088V30.8477H17.3933V30.9048ZM14.9932 30.4878C14.8511 30.7129 14.6567 30.9002 14.4266 31.034C14.231 31.1509 14.0085 31.2153 13.7807 31.221C13.392 31.221 13.0945 31.132 12.8957 30.9563C12.6968 30.7808 12.5999 30.4787 12.5999 30.0498C12.5999 29.5347 12.7591 29.1297 13.073 28.847C13.3869 28.5642 13.8764 28.4181 14.5235 28.4181H15.2782V29.6181C15.2561 29.9271 15.158 30.2258 14.9926 30.4878H14.9932Z" fill="white"/>
<path d="M21.7017 25.6916L22.754 25.9907L21.1884 30.2005L19.4366 25.8384L20.2899 25.6842V25.3289H17.1367V25.6854L17.9457 25.8099L20.5539 32H20.9771L23.2225 25.9845L24.0027 25.6876V25.3414H21.7017V25.6916Z" fill="white"/>
<path d="M29.9842 28.0073V27.9455C29.9846 27.4524 29.8604 26.967 29.6233 26.5347C29.3949 26.1285 29.0581 25.7938 28.6504 25.568C28.2198 25.3325 27.7356 25.2125 27.2447 25.2196C26.6779 25.213 26.1194 25.3566 25.626 25.6356C25.1426 25.9125 24.7435 26.3152 24.4707 26.8009C24.1874 27.2991 24.043 27.8844 24.043 28.5411C24.043 29.1976 24.189 29.7874 24.477 30.2878C24.7548 30.7801 25.1628 31.1861 25.6566 31.4612C26.1649 31.7409 26.737 31.8843 27.3173 31.877C27.9937 31.877 28.5756 31.6924 29.047 31.3286C29.5177 30.9668 29.8344 30.4408 29.9338 29.8555L29.9473 29.7829H29.544L29.5344 29.8323C29.4421 30.3132 29.1669 30.7398 28.7667 31.0222C28.3466 31.33 27.8379 31.4924 27.3173 31.485C26.732 31.485 26.2798 31.2703 25.9727 30.8465C25.6655 30.4226 25.5036 29.8459 25.5036 29.1467V28.0021L29.9842 28.0073ZM26.0141 26.1578C26.3009 25.7936 26.7104 25.6089 27.2322 25.6089C27.6765 25.6089 27.9944 25.7692 28.2034 26.0984C28.4125 26.4276 28.5161 26.9205 28.5224 27.5811H25.5195C25.567 26.9936 25.7331 26.5177 26.0141 26.1578Z" fill="white"/>
<path d="M32.842 31.2776V21.8959H30.5898V22.2534L31.5026 22.3752V31.2776L30.5898 31.3989V31.7569H33.6941V31.3994L32.842 31.2776Z" fill="white"/>
<path d="M28.4648 0.000976562V2.1903H30.6542V19.7066H32.8442V0.000976562H28.4648Z" fill="white"/>
<path d="M21.4098 11.861C22.5246 11.0407 23.3517 9.88935 23.7734 8.57119C24.1949 7.25303 24.1895 5.83537 23.7579 4.52046C23.3262 3.20557 22.4903 2.06057 21.3694 1.24881C20.2485 0.437051 18.8999 0 17.5159 0C16.132 0 14.7834 0.437051 13.6625 1.24881C12.5416 2.06057 11.7057 3.20557 11.2741 4.52046C10.8424 5.83537 10.837 7.25303 11.2586 8.57119C11.6802 9.88935 12.5074 11.0407 13.622 11.861C12.1609 12.5862 10.9313 13.7051 10.0719 15.0916C9.21244 16.4781 8.75732 18.0771 8.75781 19.7083H10.9477C10.9396 18.8406 11.1036 17.9799 11.4301 17.1759C11.7565 16.372 12.2391 15.6407 12.8498 15.0243C13.4605 14.4079 14.1873 13.9186 14.9882 13.5846C15.7891 13.2507 16.6482 13.0788 17.5159 13.0788C18.3837 13.0788 19.2427 13.2507 20.0437 13.5846C20.8446 13.9186 21.5714 14.4079 22.1821 15.0243C22.7928 15.6407 23.2753 16.372 23.6018 17.1759C23.9283 17.9799 24.0923 18.8406 24.0842 19.7083H26.2742C26.2749 18.0769 25.8198 16.4779 24.9604 15.0914C24.1009 13.7049 22.8712 12.586 21.4098 11.861ZM17.5157 10.9488C16.6496 10.9488 15.8029 10.6919 15.0827 10.2107C14.3626 9.72954 13.8013 9.0456 13.4698 8.2454C13.1384 7.4452 13.0516 6.56468 13.2206 5.7152C13.3896 4.86572 13.8067 4.08541 14.4191 3.47298C15.0315 2.86052 15.8118 2.44345 16.6613 2.27448C17.5108 2.1055 18.3913 2.19223 19.1915 2.52367C19.9918 2.85513 20.6756 3.41642 21.1568 4.13658C21.6381 4.85674 21.8949 5.70342 21.8949 6.56955C21.895 7.14465 21.7818 7.71415 21.5616 8.24548C21.3416 8.77683 21.0191 9.25963 20.6124 9.66628C20.2057 10.0729 19.7229 10.3955 19.1917 10.6156C18.6603 10.8356 18.0907 10.9488 17.5157 10.9488Z" fill="white"/>
<path d="M0 0.00134277V2.19067H2.18932V19.7069H4.37922V0.00134277H0Z" fill="white"/>
</svg>
